<?xml version="1.0" encoding="UTF-8"?>
<svg id="Layer_1" xmlns="http://www.w3.org/2000/svg" version="1.1" viewBox="0 0 800 800">
  <!-- Generator: Adobe Illustrator 29.7.1, SVG Export Plug-In . SVG Version: 2.1.1 Build 8)  -->
  <defs>
    <style>
      .st0 {
        fill: #1e1d6d;
        fill-rule: evenodd;
      }
    </style>
  </defs>
  <path class="st0" d="M511.46,285.1c-28.83-28-68.16-45.25-111.5-45.25s-82.62,17.23-111.46,45.2c-28.88-27.98-68.16-45.2-111.5-45.2-88.37,0-160.12,71.76-160.12,160.15s71.75,160.15,160.12,160.15c43.35,0,82.62-17.23,111.5-45.2,28.83,27.98,68.16,45.2,111.46,45.2s82.67-17.25,111.5-45.25c28.83,28,68.2,45.25,111.5,45.25,88.42,0,160.17-71.76,160.17-160.15s-71.75-160.15-160.17-160.15c-43.3,0-82.67,17.25-111.5,45.25ZM477.59,332.82c-18.87-21.74-46.65-35.5-77.64-35.5s-58.72,13.73-77.59,35.43c9.79,21.06,14.84,44.02,14.8,67.25,0,24.01-5.27,46.79-14.8,67.25,18.87,21.7,46.65,35.43,77.59,35.43s58.77-13.76,77.64-35.5c-9.75-21.05-14.79-43.98-14.75-67.18,0-23.98,5.27-46.74,14.75-67.18h0ZM254.59,332.75c-18.82-21.7-46.6-35.43-77.59-35.43-56.66,0-102.64,46.01-102.64,102.68s45.98,102.68,102.64,102.68c30.99,0,58.77-13.73,77.59-35.43-9.77-21.07-14.82-44.02-14.8-67.25,0-24.01,5.32-46.79,14.8-67.25ZM545.37,467.17c18.82,21.74,46.6,35.5,77.59,35.5,56.66,0,102.69-46.01,102.69-102.68s-46.03-102.68-102.69-102.68c-30.99,0-58.77,13.76-77.59,35.5,9.72,21.06,14.73,43.98,14.7,67.18,0,23.98-5.27,46.74-14.7,67.18h0Z"/>
</svg>